<?xml version="1.0" encoding="UTF-8"?>
<svg width="24px" height="17px" viewBox="0 0 24 17" version="1.1" xmlns="http://www.w3.org/2000/svg" xmlns:xlink="http://www.w3.org/1999/xlink">
    <!-- Generator: Sketch 48.1 (47250) - http://www.bohemiancoding.com/sketch -->
    <title>logo-youtube</title>
    <desc>Created with Sketch.</desc>
    <defs></defs>
    <g id="Global-elements/desktop-footer" stroke="none" stroke-width="1" fill="none" fill-rule="evenodd" transform="translate(-1359.000000, -33.000000)">
        <g id="footer" transform="translate(0.000000, 33.000000)" fill="#444444" fill-rule="nonzero">
            <g id="social" transform="translate(1228.000000, 0.000000)">
                <g id="logo-youtube" transform="translate(131.254237, 0.830508)">
                    <path d="M22.8083333,3.45 C22.8083333,3.45 22.6166667,1.82083333 21.85,1.15 C20.9875,0.191666667 20.0291667,0.191666667 19.55,0.191666667 C16.2916667,0 11.5,0 11.5,0 C11.5,0 6.70833333,0 3.45,0.191666667 C2.97083333,0.2875 2.0125,0.2875 1.15,1.15 C0.479166667,1.82083333 0.191666667,3.45 0.191666667,3.45 C0.191666667,3.45 0,5.27083333 0,7.1875 L0,8.9125 C0,10.7333333 0.191666667,12.65 0.191666667,12.65 C0.191666667,12.65 0.383333333,14.2791667 1.15,14.95 C2.0125,15.9083333 3.1625,15.8125 3.64166667,15.9083333 C5.4625,16.1 11.5,16.1 11.5,16.1 C11.5,16.1 16.2916667,16.1 19.55,15.8125 C20.0291667,15.7166667 20.9875,15.7166667 21.85,14.8541667 C22.5208333,14.1833333 22.8083333,12.5541667 22.8083333,12.5541667 C22.8083333,12.5541667 23,10.7333333 23,8.81666667 L23,7.09166667 C23,5.27083333 22.8083333,3.45 22.8083333,3.45 Z M9.10416667,11.0208333 L9.10416667,4.6 L15.3333333,7.85833333 L9.10416667,11.0208333 Z" id="Shape"></path>
                </g>
            </g>
        </g>
    </g>
</svg>