<?xml version="1.0" encoding="UTF-8"?>
<svg width="18px" height="15px" viewBox="0 0 18 15" version="1.1" xmlns="http://www.w3.org/2000/svg" xmlns:xlink="http://www.w3.org/1999/xlink">
    <!-- Generator: Sketch 48.1 (47250) - http://www.bohemiancoding.com/sketch -->
    <title>logo-twitter</title>
    <desc>Created with Sketch.</desc>
    <defs></defs>
    <g id="Global-elements/desktop-footer" stroke="none" stroke-width="1" fill="none" fill-rule="evenodd" transform="translate(-1271.000000, -34.000000)">
        <g id="footer" transform="translate(0.000000, 33.000000)" fill="#444444" fill-rule="nonzero">
            <g id="social" transform="translate(1228.000000, 0.000000)">
                <g id="logo-twitter" transform="translate(43.084746, 1.661017)">
                    <path d="M17.68,1.69433333 C17.017,1.989 16.354,2.21 15.6173333,2.28366667 C16.354,1.84166667 16.9433333,1.105 17.238,0.294666667 C16.5013333,0.736666667 15.7646667,1.03133333 14.9543333,1.17866667 C14.2913333,0.442 13.3336667,0 12.3023333,0 C10.3133333,0 8.69266667,1.62066667 8.69266667,3.60966667 C8.69266667,3.90433333 8.69266667,4.199 8.76633333,4.42 C5.67233333,4.27266667 3.02033333,2.79933333 1.25233333,0.589333333 C0.884,1.17866667 0.736666667,1.768 0.736666667,2.431 C0.736666667,3.68333333 1.39966667,4.78833333 2.35733333,5.45133333 C1.768,5.45133333 1.17866667,5.304 0.736666667,5.00933333 C0.736666667,5.00933333 0.736666667,5.00933333 0.736666667,5.083 C0.736666667,6.851 1.989,8.32433333 3.60966667,8.619 C3.315,8.69266667 3.02033333,8.76633333 2.652,8.76633333 C2.431,8.76633333 2.21,8.76633333 1.989,8.69266667 C2.431,10.166 3.757,11.1973333 5.37766667,11.1973333 C4.12533333,12.155 2.57833333,12.7443333 0.884,12.7443333 C0.589333333,12.7443333 0.294666667,12.7443333 0,12.6706667 C1.62066667,13.702 3.536,14.2913333 5.525,14.2913333 C12.2286667,14.2913333 15.8383333,8.76633333 15.8383333,3.978 C15.8383333,3.83066667 15.8383333,3.68333333 15.8383333,3.536 C16.575,3.02033333 17.1643333,2.35733333 17.68,1.69433333 Z" id="Shape"></path>
                </g>
            </g>
        </g>
    </g>
</svg>