<svg version="1.1" width="220.000000" height="42.000000" viewBox="0.000000 0.000000 220.000000 42.000000" xmlns="http://www.w3.org/2000/svg" xmlns:xlink="http://www.w3.org/1999/xlink" overflow="hidden"><defs></defs><g id="Global-elements/desktop-header/blue" stroke="none" stroke-width="1.000000" fill="none" fill-rule="evenodd" transform="matrix(1.000000,0.000000,0.000000,1.000000,-57.000000,-40.000000)"><g id="logo" fill="#003CD1" transform="matrix(1.000000,0.000000,0.000000,1.000000,57.000000,40.000000)"><path d=" M 35.606735 20.689314 C 35.598751 18.541653 35.181816 16.583830 34.457058 14.845121 C 34.293831 14.451250 33.775764 14.358105 33.478588 14.664153 L 32.195847 15.988588 C 31.947460 16.245848 31.855202 16.617540 31.963427 16.959072 C 32.318268 18.089233 32.520523 19.341814 32.523186 20.719477 C 32.509880 26.998346 28.367138 30.631008 24.321976 31.921734 C 21.534718 32.811493 18.908024 32.960526 16.048025 32.327137 C 13.732701 31.815283 11.391653 30.560040 9.541169 28.965040 C 9.181008 28.654556 8.652298 29.081249 8.898911 29.489315 C 11.162783 33.236412 15.780121 35.676815 20.967863 35.676815 C 27.993670 35.676815 35.573910 29.970121 35.606735 20.748751 L 35.608509 20.748751 C 35.608509 20.739880 35.607620 20.730122 35.607620 20.720364 C 35.607620 20.709717 35.608509 20.699959 35.608509 20.689314 L 35.606735 20.689314 Z" id="Fill-1" stroke="none" stroke-width="1.000000" stroke-linecap="butt" fill="#FFFFFF" fill-opacity="1.000000"/><path d=" M 34.809765 32.591492 C 34.542751 32.315605 34.096539 32.314716 33.835735 32.595928 C 33.111862 33.377460 32.325893 34.088024 31.490250 34.718750 C 29.788799 36.031654 27.839848 37.016331 25.764040 37.631977 C 25.668234 37.660362 25.573315 37.688751 25.476622 37.715363 C 25.375492 37.744637 25.273476 37.771252 25.170572 37.797863 C 23.737911 38.176655 22.277750 38.375362 20.836218 38.370926 L 20.836218 38.368267 C 20.792749 38.368267 20.749283 38.370926 20.707588 38.370926 C 15.987347 38.370926 11.564282 36.526653 8.252750 33.176090 C 5.039685 29.928427 3.224685 25.605604 3.096944 20.957218 C 3.158153 20.778025 3.100492 20.216492 3.107589 20.064798 C 3.127992 19.658508 3.160815 19.253105 3.206944 18.848589 C 3.574202 15.657701 4.781540 12.582137 6.726943 10.021089 C 7.908556 8.464233 9.345654 7.103427 10.968153 6.014072 C 15.864040 2.563266 22.613073 2.204879 28.014605 4.638186 C 29.173153 5.160686 30.274927 5.807379 31.291540 6.568508 C 31.732428 6.898508 31.779444 7.543427 31.396217 7.938186 C 29.834040 9.551814 27.162106 12.312460 26.149927 13.357460 C 25.913960 13.602299 25.544928 13.659960 25.244202 13.500282 C 24.922186 13.329073 24.505251 13.117057 24.185009 12.989314 C 23.574686 12.745363 22.945734 12.546653 22.300814 12.414475 C 21.121862 12.173185 19.840008 12.099557 18.656622 12.355041 C 16.753798 12.763992 14.878476 14.144315 14.184766 16.003670 C 14.054363 16.355846 14.460653 16.665443 14.772024 16.456089 C 17.349041 14.728024 20.852186 14.594072 23.590652 16.072863 C 24.094524 16.345201 24.677347 16.774557 25.146622 17.147137 C 25.658476 17.553427 26.393879 17.503750 26.848959 17.035362 L 35.437832 8.194556 C 36.002911 7.613508 35.999363 6.686492 35.428959 6.109879 C 35.167267 5.845524 34.923313 5.602460 34.792912 5.480041 C 33.553638 4.325040 32.165329 3.330605 30.676783 2.520685 C 24.664927 -0.751815 17.193798 -0.861814 11.126944 2.329960 C 5.072508 5.515524 0.951056 11.644476 0.151782 18.421007 C 0.072831 19.088991 0.025815 19.760525 0.008960 20.432943 L 0.000089 20.432943 C 0.000089 20.505686 0.004524 20.577539 0.005411 20.650282 C 0.003637 20.768267 0.000089 20.887136 0.000089 21.006008 L 0.013395 21.006008 C 0.154444 26.453669 2.284363 31.526976 6.058959 35.345039 C 9.954202 39.285522 15.157024 41.455364 20.707588 41.455364 C 26.237749 41.455364 31.594040 39.235847 35.401459 35.365444 L 35.927509 34.830524 C 36.222023 34.531574 36.223797 34.051655 35.931942 33.750042 L 34.809765 32.591492 Z" id="Fill-3" stroke="none" stroke-width="1.000000" stroke-linecap="butt" fill="#FFFFFF" fill-opacity="1.000000"/><path d=" M 17.520073 9.602822 C 18.616524 9.301209 19.758217 9.159274 20.895475 9.162823 C 21.608702 9.165483 22.313057 9.281693 23.017412 9.396129 C 23.571846 9.484838 24.434992 9.788226 24.910477 9.966533 C 25.121605 10.045484 25.358459 9.992258 25.517250 9.830807 C 25.873863 9.465322 26.525879 8.798225 27.012009 8.301452 C 27.287895 8.020242 27.197411 7.549193 26.837250 7.389516 C 21.192654 4.887903 13.837734 6.010968 9.936282 11.051452 C 6.325799 15.716694 7.004427 22.775322 11.294428 26.785000 C 13.859911 29.181049 17.332008 30.095646 20.776606 29.632580 C 22.930475 29.354033 25.036444 28.539677 26.724588 27.161129 C 27.046604 26.898548 27.329588 26.649275 27.553137 26.444355 C 27.861847 26.161371 27.877815 25.681452 27.588621 25.378065 L 26.419428 24.155645 C 26.164831 23.888630 25.738136 23.877096 25.476444 24.137903 C 25.326525 24.288710 25.136686 24.461693 24.898943 24.650644 C 24.293943 25.134113 23.641041 25.524435 22.914509 25.819839 C 20.865314 26.651936 18.459509 26.974838 16.339346 26.265162 C 12.573621 25.006371 10.390476 21.057903 10.737330 17.192823 C 11.075315 13.408467 13.953056 10.582177 17.520073 9.602822" id="Fill-5" stroke="none" stroke-width="1.000000" stroke-linecap="butt" fill="#FFFFFF" fill-opacity="1.000000"/><path d=" M 106.711357 13.706000 C 106.861275 13.706000 106.990791 13.761000 107.099899 13.870113 C 107.209015 13.979226 107.264015 14.108742 107.264015 14.258661 L 107.264015 27.465757 C 107.264015 27.615677 107.209015 27.745193 107.099899 27.853420 C 106.990791 27.962532 106.861275 28.016645 106.711357 28.016645 L 105.056030 28.016645 C 104.906113 28.016645 104.775711 27.962532 104.666595 27.853420 C 104.557487 27.745193 104.504257 27.615677 104.504257 27.465757 L 104.504257 22.067774 L 98.329178 22.067774 L 98.329178 27.465757 C 98.329178 27.615677 98.274178 27.745193 98.165955 27.853420 C 98.055954 27.962532 97.927322 28.016645 97.778290 28.016645 L 96.121193 28.016645 C 95.971275 28.016645 95.841759 27.966080 95.732643 27.863178 C 95.623535 27.762049 95.568535 27.628984 95.568535 27.465757 L 95.568535 14.258661 C 95.568535 14.108742 95.623535 13.979226 95.732643 13.870113 C 95.841759 13.761000 95.971275 13.706000 96.121193 13.706000 L 97.778290 13.706000 C 97.927322 13.706000 98.055954 13.761000 98.165955 13.870113 C 98.274178 13.979226 98.329178 14.108742 98.329178 14.258661 L 98.329178 19.512049 L 104.504257 19.512049 L 104.504257 14.258661 C 104.504257 14.108742 104.557487 13.979226 104.666595 13.870113 C 104.775711 13.761000 104.906113 13.706000 105.056030 13.706000 L 106.711357 13.706000 Z" id="Fill-7" stroke="none" stroke-width="1.000000" stroke-linecap="butt" fill="#FFFFFF" fill-opacity="1.000000"/><path d=" M 119.530968 22.681379 L 117.281288 16.854927 L 115.032501 22.681379 L 119.530968 22.681379 Z M 118.405243 13.705734 C 118.624352 13.705734 118.787582 13.764282 118.896690 13.879604 C 119.005806 13.995814 119.101616 14.169685 119.182343 14.401217 L 124.191772 27.321783 C 124.205971 27.363476 124.212173 27.411379 124.212173 27.465492 C 124.212173 27.615412 124.158066 27.744926 124.048950 27.854040 C 123.939842 27.963154 123.809433 28.017265 123.659515 28.017265 L 122.188713 28.017265 C 121.915482 28.017265 121.724754 27.959604 121.616531 27.843395 C 121.507416 27.728073 121.432899 27.615412 121.391212 27.506298 L 120.511208 25.236217 L 114.051369 25.236217 L 113.172256 27.506298 C 113.131454 27.615412 113.056046 27.728073 112.946938 27.843395 C 112.837822 27.959604 112.647095 28.017265 112.375648 28.017265 L 110.902176 28.017265 C 110.752258 28.017265 110.623627 27.963154 110.514519 27.854040 C 110.405403 27.744926 110.350403 27.615412 110.350403 27.465492 C 110.350403 27.411379 110.357498 27.363476 110.371696 27.321783 L 115.379356 14.401217 C 115.461853 14.169685 115.557663 13.995814 115.666771 13.879604 C 115.775887 13.764282 115.938225 13.705734 116.156448 13.705734 L 118.405243 13.705734 Z" id="Fill-9" stroke="none" stroke-width="1.000000" stroke-linecap="butt" fill="#FFFFFF" fill-opacity="1.000000"/><path d=" M 135.374878 13.706000 C 135.524796 13.706000 135.653412 13.761000 135.762527 13.870113 C 135.872528 13.979226 135.925751 14.108742 135.925751 14.258661 L 135.925751 15.709951 C 135.925751 15.859871 135.872528 15.989388 135.762527 16.097612 C 135.653412 16.206726 135.524796 16.261726 135.374878 16.261726 L 131.695190 16.261726 L 131.695190 27.465757 C 131.695190 27.615677 131.639313 27.745193 131.531082 27.853420 C 131.421967 27.962532 131.291565 28.016645 131.142532 28.016645 L 129.486328 28.016645 C 129.336411 28.016645 129.206894 27.962532 129.097778 27.853420 C 128.988663 27.745193 128.934555 27.615677 128.934555 27.465757 L 128.934555 16.261726 L 125.254868 16.261726 C 125.104065 16.261726 124.974548 16.206726 124.866325 16.097612 C 124.756325 15.989388 124.702209 15.859871 124.702209 15.709951 L 124.702209 14.258661 C 124.702209 14.108742 124.756325 13.979226 124.866325 13.870113 C 124.974548 13.761000 125.104065 13.706000 125.254868 13.706000 L 135.374878 13.706000 Z" id="Fill-11" stroke="none" stroke-width="1.000000" stroke-linecap="butt" fill="#FFFFFF" fill-opacity="1.000000"/><path d=" M 148.838959 13.706000 C 148.988876 13.706000 149.117508 13.761000 149.226624 13.870113 C 149.336624 13.979226 149.390732 14.108742 149.390732 14.258661 L 149.390732 15.709951 C 149.390732 15.859871 149.336624 15.989388 149.226624 16.097612 C 149.117508 16.206726 148.988876 16.261726 148.838959 16.261726 L 145.159286 16.261726 L 145.159286 27.465757 C 145.159286 27.615677 145.103394 27.745193 144.994278 27.853420 C 144.885162 27.962532 144.755646 28.016645 144.606628 28.016645 L 142.949524 28.016645 C 142.799606 28.016645 142.670975 27.962532 142.561859 27.853420 C 142.452744 27.745193 142.398636 27.615677 142.398636 27.465757 L 142.398636 16.261726 L 138.718964 16.261726 C 138.568146 16.261726 138.438644 16.206726 138.329529 16.097612 C 138.220413 15.989388 138.166306 15.859871 138.166306 15.709951 L 138.166306 14.258661 C 138.166306 14.108742 138.220413 13.979226 138.329529 13.870113 C 138.438644 13.761000 138.568146 13.706000 138.718964 13.706000 L 148.838959 13.706000 Z" id="Fill-13" stroke="none" stroke-width="1.000000" stroke-linecap="butt" fill="#FFFFFF" fill-opacity="1.000000"/><path d=" M 162.188705 25.461807 C 162.338623 25.461807 162.467255 25.515919 162.576370 25.625032 C 162.686356 25.734146 162.740479 25.863661 162.740479 26.013580 L 162.740479 27.465757 C 162.740479 27.615677 162.686356 27.745193 162.576370 27.853420 C 162.467255 27.962532 162.338623 28.016645 162.188705 28.016645 L 153.213058 28.016645 C 153.063141 28.016645 152.933624 27.962532 152.824509 27.853420 C 152.715393 27.745193 152.661285 27.615677 152.661285 27.465757 L 152.661285 14.258661 C 152.661285 14.108742 152.715393 13.979226 152.824509 13.870113 C 152.933624 13.761000 153.063141 13.706000 153.213058 13.706000 L 162.024582 13.706000 C 162.174515 13.706000 162.304031 13.761000 162.414017 13.870113 C 162.522247 13.979226 162.576370 14.108742 162.576370 14.258661 L 162.576370 15.709951 C 162.576370 15.859871 162.522247 15.989388 162.414017 16.097612 C 162.304031 16.206726 162.174515 16.261726 162.024582 16.261726 L 155.421036 16.261726 L 155.421036 19.512049 L 161.575714 19.512049 C 161.724747 19.512049 161.854263 19.566162 161.963379 19.676161 C 162.072495 19.785275 162.127487 19.914791 162.127487 20.064711 L 162.127487 21.516001 C 162.127487 21.665920 162.072495 21.795435 161.963379 21.904549 C 161.854263 22.013660 161.724747 22.067774 161.575714 22.067774 L 155.421036 22.067774 L 155.421036 25.461807 L 162.188705 25.461807 Z" id="Fill-15" stroke="none" stroke-width="1.000000" stroke-linecap="butt" fill="#FFFFFF" fill-opacity="1.000000"/><path d=" M 169.262146 20.145702 L 172.226822 20.145702 C 173.003922 20.145702 173.623108 20.009975 174.087067 19.737637 C 174.550125 19.464411 174.782547 18.946346 174.782547 18.183443 C 174.782547 17.420540 174.550125 16.909573 174.087067 16.650539 C 173.623108 16.391508 173.003922 16.261992 172.226822 16.261992 L 169.262146 16.261992 L 169.262146 20.145702 Z M 172.328842 13.706266 C 174.032959 13.706266 175.327225 14.101912 176.214325 14.892315 C 177.098755 15.682717 177.542313 16.780056 177.542313 18.183443 C 177.542313 19.178766 177.313431 20.026831 176.858353 20.728523 C 176.401505 21.431105 175.729965 21.952717 174.843765 22.292477 L 177.665619 27.342718 C 177.706421 27.424330 177.725937 27.499733 177.725937 27.567154 C 177.725937 27.689573 177.681580 27.796024 177.593765 27.883846 C 177.504166 27.973444 177.399490 28.016911 177.276184 28.016911 L 175.538361 28.016911 C 175.266022 28.016911 175.065536 27.953041 174.936020 27.822638 C 174.805618 27.693121 174.714249 27.574249 174.660126 27.465137 L 171.981094 22.701427 L 169.262146 22.701427 L 169.262146 27.465137 C 169.262146 27.615057 169.207138 27.744572 169.098923 27.853685 C 168.988922 27.962799 168.860291 28.016911 168.710373 28.016911 L 167.054153 28.016911 C 166.904236 28.016911 166.774719 27.962799 166.665619 27.853685 C 166.556503 27.744572 166.502380 27.615057 166.502380 27.465137 L 166.502380 14.258040 C 166.502380 14.108121 166.556503 13.978605 166.665619 13.870379 C 166.774719 13.761266 166.904236 13.706266 167.054153 13.706266 L 172.328842 13.706266 Z" id="Fill-17" stroke="none" stroke-width="1.000000" stroke-linecap="butt" fill="#FFFFFF" fill-opacity="1.000000"/><path d=" M 205.407791 25.461807 C 205.557709 25.461807 205.687225 25.515919 205.796341 25.625032 C 205.906342 25.734146 205.959564 25.863661 205.959564 26.013580 L 205.959564 27.465757 C 205.959564 27.615677 205.906342 27.745193 205.796341 27.853420 C 205.687225 27.962532 205.557709 28.016645 205.407791 28.016645 L 196.433029 28.016645 C 196.283112 28.016645 196.152710 27.962532 196.043594 27.853420 C 195.934479 27.745193 195.881256 27.615677 195.881256 27.465757 L 195.881256 14.258661 C 195.881256 14.108742 195.934479 13.979226 196.043594 13.870113 C 196.152710 13.761000 196.283112 13.706000 196.433029 13.706000 L 205.244568 13.706000 C 205.394485 13.706000 205.523117 13.761000 205.633118 13.870113 C 205.741333 13.979226 205.796341 14.108742 205.796341 14.258661 L 205.796341 15.709951 C 205.796341 15.859871 205.741333 15.989388 205.633118 16.097612 C 205.523117 16.206726 205.394485 16.261726 205.244568 16.261726 L 198.641022 16.261726 L 198.641022 19.512049 L 204.795700 19.512049 C 204.944733 19.512049 205.073349 19.566162 205.182465 19.676161 C 205.291580 19.785275 205.347473 19.914791 205.347473 20.064711 L 205.347473 21.516001 C 205.347473 21.665920 205.291580 21.795435 205.182465 21.904549 C 205.073349 22.013660 204.944733 22.067774 204.795700 22.067774 L 198.641022 22.067774 L 198.641022 25.461807 L 205.407791 25.461807 Z" id="Fill-19" stroke="none" stroke-width="1.000000" stroke-linecap="butt" fill="#FFFFFF" fill-opacity="1.000000"/><path d=" M 219.247925 25.461807 C 219.397842 25.461807 219.527359 25.515919 219.636475 25.625032 C 219.746475 25.734146 219.799698 25.863661 219.799698 26.013580 L 219.799698 27.465757 C 219.799698 27.615677 219.746475 27.745193 219.636475 27.853420 C 219.527359 27.962532 219.397842 28.016645 219.247925 28.016645 L 210.273163 28.016645 C 210.123245 28.016645 209.992844 27.962532 209.883728 27.853420 C 209.775497 27.745193 209.721390 27.615677 209.721390 27.465757 L 209.721390 14.258661 C 209.721390 14.108742 209.775497 13.979226 209.883728 13.870113 C 209.992844 13.761000 210.123245 13.706000 210.273163 13.706000 L 219.084702 13.706000 C 219.234619 13.706000 219.364136 13.761000 219.473236 13.870113 C 219.581467 13.979226 219.636475 14.108742 219.636475 14.258661 L 219.636475 15.709951 C 219.636475 15.859871 219.581467 15.989388 219.473236 16.097612 C 219.364136 16.206726 219.234619 16.261726 219.084702 16.261726 L 212.481140 16.261726 L 212.481140 19.512049 L 218.635818 19.512049 C 218.784851 19.512049 218.914368 19.566162 219.022598 19.676161 C 219.131714 19.785275 219.187592 19.914791 219.187592 20.064711 L 219.187592 21.516001 C 219.187592 21.665920 219.131714 21.795435 219.022598 21.904549 C 218.914368 22.013660 218.784851 22.067774 218.635818 22.067774 L 212.481140 22.067774 L 212.481140 25.461807 L 219.247925 25.461807 Z" id="Fill-21" stroke="none" stroke-width="1.000000" stroke-linecap="butt" fill="#FFFFFF" fill-opacity="1.000000"/><path d=" M 66.815422 17.834814 L 68.219696 17.834814 C 68.567436 17.834814 68.854858 17.768282 69.083725 17.635218 C 69.310822 17.503040 69.424370 17.263525 69.424370 16.914896 C 69.424370 16.567154 69.310822 16.327637 69.083725 16.194572 C 68.854858 16.061508 68.567436 15.995863 68.219696 15.995863 L 66.815422 15.995863 L 66.815422 17.834814 Z M 68.219696 14.069976 C 68.766144 14.069976 69.254936 14.127637 69.685181 14.243847 C 70.116310 14.360057 70.483566 14.533927 70.786064 14.766347 C 71.086792 14.996992 71.320099 15.293283 71.481552 15.654330 C 71.642113 16.014492 71.723724 16.434977 71.723724 16.914896 C 71.723724 17.536751 71.595100 18.052153 71.338722 18.462879 C 71.082352 18.871830 70.716873 19.184977 70.244934 19.400539 L 71.785820 22.358122 C 71.810661 22.407799 71.823082 22.453928 71.823082 22.494734 C 71.823082 22.568363 71.795578 22.634008 71.742355 22.687233 C 71.688240 22.741346 71.624374 22.767960 71.549858 22.767960 L 69.859932 22.767960 C 69.694046 22.767960 69.576065 22.730701 69.505096 22.656185 C 69.435013 22.581669 69.379128 22.507153 69.338326 22.432636 L 67.958000 19.774008 L 66.815422 19.774008 L 66.815422 22.432636 C 66.815422 22.524008 66.782600 22.602961 66.716064 22.668604 C 66.649529 22.735138 66.571465 22.767960 66.480095 22.767960 L 64.852272 22.767960 C 64.760902 22.767960 64.682838 22.735138 64.616310 22.668604 C 64.548889 22.602961 64.516068 22.524008 64.516068 22.432636 L 64.516068 14.405298 C 64.516068 14.313928 64.548889 14.234976 64.616310 14.169331 C 64.682838 14.102798 64.760902 14.069976 64.852272 14.069976 L 68.219696 14.069976 Z" id="Fill-23" stroke="none" stroke-width="1.000000" stroke-linecap="butt" fill="#FFFFFF" fill-opacity="1.000000"/><path d=" M 71.863358 25.398113 C 71.755127 25.289000 71.625610 25.233999 71.475693 25.233999 L 64.826019 25.233999 C 64.675209 25.233999 64.545692 25.289000 64.437469 25.398113 C 64.327469 25.507225 64.273354 25.636742 64.273354 25.786661 L 64.273354 27.237951 C 64.273354 27.388758 64.327469 27.517387 64.437469 27.626499 C 64.545692 27.735613 64.675209 27.790613 64.826019 27.790613 L 71.475693 27.790613 C 71.625610 27.790613 71.755127 27.735613 71.863358 27.626499 C 71.973358 27.517387 72.028358 27.387871 72.028358 27.237951 L 72.028358 25.786661 C 72.028358 25.636742 71.973358 25.507225 71.863358 25.398113" id="Fill-25" stroke="none" stroke-width="1.000000" stroke-linecap="butt" fill="#FFFFFF" fill-opacity="1.000000"/><path d=" M 89.652931 24.073145 C 88.644295 24.981533 87.318092 25.522661 85.966156 25.407339 C 84.890991 25.315081 83.975510 24.882177 83.182442 24.093548 C 82.282928 23.189596 81.845589 22.133064 81.845589 20.862741 C 81.845589 19.598629 82.282928 18.543871 83.178009 17.643467 C 83.974625 16.852177 84.889221 16.418386 85.963493 16.326130 C 87.314537 16.209919 88.640747 16.750162 89.649376 17.656775 L 89.848976 17.836855 C 90.068092 18.033791 90.403412 18.024920 90.610992 17.816452 L 91.772202 16.656130 C 92.014381 16.413952 92.003731 16.017420 91.750023 15.787662 L 91.347282 15.422177 C 89.948334 14.156290 88.286797 13.514919 86.409698 13.514919 C 84.386230 13.514919 82.635994 14.241451 81.212204 15.670565 C 79.779541 17.097015 79.053009 18.844597 79.053009 20.862741 C 79.053009 22.887096 79.779541 24.636452 81.208656 26.059355 C 82.635994 27.492016 84.386230 28.218548 86.409698 28.218548 C 88.287689 28.218548 89.949219 27.577177 91.347282 26.310404 L 91.749138 25.945807 C 92.003731 25.716049 92.013489 25.319515 91.771317 25.077339 L 90.610992 23.917017 C 90.403412 23.708548 90.068092 23.699677 89.848976 23.896612 L 89.652931 24.073145 Z" id="Fill-27" stroke="none" stroke-width="1.000000" stroke-linecap="butt" fill="#FFFFFF" fill-opacity="1.000000"/><path d=" M 54.391716 25.276403 L 52.957283 25.276403 C 52.597122 25.276403 52.304379 24.984549 52.304379 24.624388 L 52.304379 16.775354 C 52.304379 16.415194 52.597122 16.123339 52.957283 16.123339 L 54.394379 16.123339 C 55.819057 16.123339 57.231316 16.664467 58.164539 17.741404 C 58.892845 18.583258 59.248573 19.556404 59.248573 20.703419 C 59.248573 21.849548 58.891071 22.820919 58.160107 23.661886 C 57.225105 24.737049 55.815510 25.276403 54.391716 25.276403 M 59.880184 15.874951 C 58.460831 14.363338 56.707928 13.596887 54.675591 13.596887 L 50.429943 13.596887 C 50.069782 13.596887 49.777927 13.888741 49.777927 14.248903 L 49.777927 27.149952 C 49.777927 27.511000 50.069782 27.802855 50.429943 27.802855 L 54.675591 27.802855 C 56.620106 27.802855 58.308250 27.104710 59.696556 25.721725 C 61.148735 24.264225 61.845993 22.469629 61.767929 20.393822 C 61.705830 18.717209 61.026314 17.098259 59.880184 15.874951" id="Fill-29" stroke="none" stroke-width="1.000000" stroke-linecap="butt" fill="#FFFFFF" fill-opacity="1.000000"/><path d=" M 185.820694 28.221830 C 184.100616 28.221830 182.579239 27.633686 181.298279 26.474251 L 180.929245 26.140701 C 180.697708 25.929573 180.687958 25.566750 180.910614 25.344090 L 181.972473 24.282234 C 182.163193 24.090622 182.471024 24.082638 182.670609 24.263605 L 182.849808 24.425056 C 183.688110 25.179976 184.766830 25.658121 185.883682 25.660782 L 185.883682 25.666105 C 186.824005 25.666105 187.546097 25.421267 188.050858 24.929815 C 188.554733 24.439251 188.806656 23.723362 188.806656 22.783928 L 188.806656 16.261992 L 182.101990 16.261992 C 181.951172 16.261992 181.821655 16.206991 181.712555 16.097879 C 181.603439 15.988766 181.550217 15.860137 181.550217 15.710217 L 181.550217 14.258040 C 181.550217 14.108121 181.603439 13.978605 181.712555 13.870379 C 181.821655 13.761266 181.951172 13.706266 182.101990 13.706266 L 191.014648 13.706266 C 191.164566 13.706266 191.294083 13.761266 191.404083 13.870379 C 191.512299 13.978605 191.567307 14.108121 191.567307 14.258040 L 191.567307 22.905460 C 191.567307 24.664572 191.076736 25.989895 190.094727 26.882315 C 189.113602 27.775621 187.710205 28.221830 185.883682 28.221830 L 185.820694 28.221830 Z" id="Fill-31" stroke="none" stroke-width="1.000000" stroke-linecap="butt" fill="#FFFFFF" fill-opacity="1.000000"/></g></g></svg>